<svg width="649" height="432" viewBox="0 0 649 432" fill="none" xmlns="http://www.w3.org/2000/svg">
<path d="M295.679 0C318.252 0.000121929 336.552 18.2994 336.552 40.8721C336.551 55.5141 328.849 68.3548 317.278 75.5723L321.404 105.142L564.459 89.4707C601.936 87.0545 634.277 115.477 636.693 152.954L647.924 327.138C650.34 364.615 621.91 396.957 584.432 399.373L414.472 410.331L402.011 324.725C400.98 317.648 393.072 313.908 386.949 317.603L282.908 380.382C276.785 384.076 276.407 392.817 282.187 397.027L309.724 417.084L83.616 431.663C46.1384 434.079 13.7902 405.657 11.3738 368.18L0.143329 193.996C-2.27299 156.519 26.1502 124.178 63.6277 121.762L295.842 106.789L292.329 81.6055C271.324 79.901 254.809 62.3164 254.808 40.8721C254.808 18.2994 273.107 8.45267e-05 295.679 0ZM204.11 233.779C202.529 217.532 188.077 205.643 171.83 207.224C155.583 208.805 143.693 223.257 145.274 239.504L152.803 316.869L211.637 311.145L204.11 233.779ZM495.321 210.908C493.74 194.661 479.288 182.772 463.041 184.353C446.794 185.933 434.904 200.386 436.485 216.633L444.013 293.998L502.848 288.273L495.321 210.908Z" fill="#10B981"/>
</svg>
